<?xml version="1.0" standalone="no"?>
<!DOCTYPE svg PUBLIC "-//W3C//DTD SVG 20010904//EN"
 "http://www.w3.org/TR/2001/REC-SVG-20010904/DTD/svg10.dtd">
<svg version="1.0" xmlns="http://www.w3.org/2000/svg"
 width="300.000000pt" height="300.000000pt" viewBox="0 0 300.000000 300.000000"
 preserveAspectRatio="xMidYMid meet">
<metadata>
Created by potrace 1.10, written by Peter Selinger 2001-2011
</metadata>
<g transform="translate(0.000000,300.000000) scale(0.100000,-0.100000)"
fill="#000000" stroke="none">
<path d="M378 2626 c-3 -2 -6 -972 -2 -986 3 -13 64 -15 476 -14 260 1 483 2
496 3 l22 1 -2 498 -3 497 -492 1 c-271 0 -494 0 -495 0z"/>
<path d="M1625 2621 c-3 -2 -5 -226 -5 -497 l0 -492 23 -4 c12 -2 238 -4 502
-3 l480 1 0 499 0 500 -498 1 c-273 0 -500 -2 -502 -5z"/>
<path d="M377 1373 c-2 -5 -4 -228 -3 -498 l1 -490 495 0 495 0 0 495 0 495
-492 3 c-270 1 -494 -1 -496 -5z"/>
<path d="M1625 1368 c-3 -7 -4 -231 -3 -498 l3 -485 500 0 500 0 0 495 0 495
-498 3 c-393 2 -499 0 -502 -10z"/>
</g>
</svg>
