<?xml version="1.0" standalone="no"?>
<!DOCTYPE svg PUBLIC "-//W3C//DTD SVG 20010904//EN"
 "http://www.w3.org/TR/2001/REC-SVG-20010904/DTD/svg10.dtd">
<svg version="1.0" xmlns="http://www.w3.org/2000/svg"
 width="300.000000pt" height="300.000000pt" viewBox="0 0 300.000000 300.000000"
 preserveAspectRatio="xMidYMid meet">
<metadata>
Created by potrace 1.10, written by Peter Selinger 2001-2011
</metadata>
<g transform="translate(0.000000,300.000000) scale(0.100000,-0.100000)"
fill="#000000" stroke="none">
<path d="M0 2380 l0 -350 353 2 352 3 3 348 2 347 -355 0 -355 0 0 -350z"/>
<path d="M880 2380 l0 -350 1060 0 1060 0 0 350 0 350 -1060 0 -1060 0 0 -350z"/>
<path d="M0 1500 l0 -350 355 0 355 0 0 350 0 350 -355 0 -355 0 0 -350z"/>
<path d="M880 1500 l0 -350 1060 0 1060 0 0 350 0 350 -1060 0 -1060 0 0 -350z"/>
<path d="M0 620 l0 -350 355 0 355 0 -2 348 -3 347 -352 3 -353 2 0 -350z"/>
<path d="M880 620 l0 -350 1060 0 1060 0 0 350 0 350 -1060 0 -1060 0 0 -350z"/>
</g>
</svg>
